<?xml version="1.0" standalone="no"?>
<!DOCTYPE svg PUBLIC "-//W3C//DTD SVG 20010904//EN"
 "http://www.w3.org/TR/2001/REC-SVG-20010904/DTD/svg10.dtd">
<svg version="1.0" xmlns="http://www.w3.org/2000/svg"
 width="256.000000pt" height="205.000000pt" viewBox="0 0 256.000000 205.000000"
 preserveAspectRatio="xMidYMid meet">

<g transform="translate(0.000000,205.000000) scale(0.100000,-0.100000)"
fill="#000000" stroke="none">
<path d="M1275 1637 c-123 -41 -181 -110 -193 -233 l-7 -64 -55 -32 c-76 -46
-113 -108 -118 -197 -7 -136 52 -205 304 -349 121 -70 186 -164 169 -242 -15
-67 -111 -112 -202 -95 -109 20 -206 128 -220 246 -6 53 -23 67 -23 19 0 -52
41 -142 87 -191 109 -116 284 -128 386 -26 47 47 77 122 77 192 0 36 3 44 23
49 44 11 106 65 132 116 34 67 34 154 1 225 -30 65 -87 115 -228 200 -196 119
-223 149 -216 241 4 45 11 61 35 85 38 38 97 53 159 39 120 -27 192 -102 225
-232 13 -54 32 -66 23 -15 -9 47 -49 133 -83 176 -61 77 -187 117 -276 88z
m-166 -355 c30 -58 116 -131 248 -210 185 -110 229 -172 192 -269 -12 -32 -47
-73 -63 -73 -6 0 -26 24 -43 54 -35 57 -102 114 -198 167 -198 108 -261 183
-235 278 8 32 57 91 76 91 2 0 12 -17 23 -38z"/>
</g>
</svg>
